<?xml version="1.0" encoding="iso-8859-1"?>
<!-- Generator: Adobe Illustrator 19.0.0, SVG Export Plug-In . SVG Version: 6.00 Build 0)  -->
<svg version="1.1" id="Capa_1" xmlns="http://www.w3.org/2000/svg" xmlns:xlink="http://www.w3.org/1999/xlink" x="0px" y="0px"
	 viewBox="0 0 512 512" style="enable-background:new 0 0 512 512;" xml:space="preserve">
<g>
	<g>
		<g>
			<path d="M256,0C114.844,0,0,114.844,0,256s114.844,256,256,256s256-114.844,256-256S397.156,0,256,0z M256,490.667
				C126.604,490.667,21.333,385.396,21.333,256S126.604,21.333,256,21.333S490.667,126.604,490.667,256S385.396,490.667,256,490.667
				z"/>
			<path d="M256,277.333c11.76,0,21.333-9.573,21.333-21.333S267.76,234.667,256,234.667S234.667,244.24,234.667,256
				S244.24,277.333,256,277.333z"/>
			<path d="M379.448,118.24l-170.885,85.552c-2.063,1.031-3.74,2.708-4.771,4.771L118.24,379.448c-2.052,4.104-1.25,9.063,2,12.313
				c2.052,2.052,4.781,3.125,7.542,3.125c1.625,0,3.26-0.365,4.771-1.125l170.885-85.552c2.063-1.031,3.74-2.708,4.771-4.771
				l85.552-170.885c2.052-4.104,1.25-9.063-2-12.313C388.521,116.99,383.531,116.198,379.448,118.24z M290.719,290.719
				l-139.052,69.615l69.615-139.052l139.052-69.615L290.719,290.719z"/>
		</g>
	</g>
</g>
<g>
</g>
<g>
</g>
<g>
</g>
<g>
</g>
<g>
</g>
<g>
</g>
<g>
</g>
<g>
</g>
<g>
</g>
<g>
</g>
<g>
</g>
<g>
</g>
<g>
</g>
<g>
</g>
<g>
</g>
</svg>
